<svg version="1.1" id="Layer_1" xmlns="http://www.w3.org/2000/svg" xmlns:xlink="http://www.w3.org/1999/xlink" x="0px" y="0px"
			width="100%" viewBox="0 0 216 46" enable-background="new 0 0 216 46" xml:space="preserve">
	   <path fill="#FDFDFD" opacity="1.000000" stroke="none" 
		   d="
	   M563.000000,342.000000 
		   C376.833344,342.000000 191.166672,341.986786 5.500054,342.093658 
		   C1.750721,342.095825 0.901499,341.249573 0.905442,337.499908 
		   C1.022010,226.666702 1.020319,115.833313 0.904663,5.000100 
		   C0.901090,1.576106 1.576546,0.904599 5.000035,0.905871 
		   C280.333344,1.008221 555.666687,1.008221 830.999939,0.905871 
		   C834.423462,0.904599 835.098938,1.576107 835.095398,5.000099 
		   C834.979736,115.999977 834.979736,227.000015 835.095337,337.999908 
		   C835.098938,341.423889 834.424133,342.100464 830.999878,342.095825 
		   C741.833374,341.974823 652.666687,342.000000 563.000000,342.000000 
	   z"/>
	   <path fill="#030303" opacity="1.000000" stroke="none" 
		   d="
	   M827.946167,157.000000 
		   C827.946106,181.332367 827.838623,205.165665 828.046753,228.996201 
		   C828.083618,233.208221 827.308899,234.539261 822.722168,234.519455 
		   C775.724976,234.316345 728.726562,234.395035 681.728455,234.395035 
		   C460.737457,234.395035 239.746429,234.376205 18.755508,234.515076 
		   C13.765763,234.518204 12.524780,233.412430 12.538468,228.340134 
		   C12.730062,157.343552 12.708883,86.346184 12.567961,15.349360 
		   C12.559511,11.092426 13.398307,9.899977 17.898176,9.902143 
		   C286.220520,10.031333 554.542969,10.027881 822.865295,9.922748 
		   C826.940247,9.921151 828.071228,10.761388 828.055603,15.006667 
		   C827.881897,62.170605 827.946167,109.335419 827.946167,157.000000 
	   z"/>
	   <path fill="#1F1416" opacity="1.000000" stroke="none" 
		   d="
	   M463.655945,309.749542 
		   C461.726868,313.420197 460.433075,312.075226 459.060028,309.729126 
		   C456.161682,304.776581 453.178162,299.873871 449.145477,295.200867 
		   C449.145477,300.911804 449.213104,306.624176 449.092529,312.332550 
		   C449.066132,313.581818 450.130219,315.813324 447.795959,315.901001 
		   C444.980591,316.006775 446.169464,313.500336 446.145691,312.143494 
		   C446.023285,305.158234 446.009521,298.167969 446.156616,291.183655 
		   C446.185638,289.807434 444.834930,287.558777 447.414978,287.083008 
		   C449.630768,286.674438 449.910645,288.961212 450.698486,290.256866 
		   C454.232086,296.067841 457.632324,301.959930 461.435364,308.425781 
		   C465.192169,302.003906 468.627136,296.047028 472.164368,290.151489 
		   C472.951904,288.838928 473.323029,286.502350 475.502380,287.125366 
		   C477.400055,287.667908 476.429565,289.691345 476.447449,291.015350 
		   C476.546295,298.334167 476.525055,305.655304 476.462524,312.974915 
		   C476.452759,314.116577 477.174805,315.962036 475.002319,315.971863 
		   C472.826355,315.981720 473.534821,314.136017 473.521576,312.990356 
		   C473.453583,307.116547 473.490112,301.241516 472.407623,295.119263 
		   C469.559052,299.894775 466.710510,304.670288 463.655945,309.749542 
	   z"/>
	   <path fill="#161D25" opacity="1.000000" stroke="none" 
		   d="
	   M568.017456,315.944641 
		   C566.562500,314.428741 565.029480,313.148651 564.413757,311.521454 
		   C562.169922,305.591339 557.254578,306.775787 552.717651,306.723816 
		   C550.666626,306.700317 550.803345,308.057220 550.807800,309.410309 
		   C550.812744,310.908020 550.807068,312.405823 550.802979,313.903564 
		   C550.800171,314.935394 550.756958,315.921600 549.357178,316.029175 
		   C547.693909,316.157043 547.486206,315.136261 547.488647,313.831177 
		   C547.503845,305.676758 547.497131,297.522369 547.495850,289.367950 
		   C547.495667,288.163544 547.499756,286.887268 549.191101,286.974609 
		   C554.144043,287.230408 559.177795,286.152191 564.043457,287.875549 
		   C567.243652,289.009003 569.580505,291.026276 570.134766,294.480347 
		   C570.740356,298.254608 570.517456,302.156433 566.804077,304.200195 
		   C563.535095,305.999359 564.786316,307.471954 566.264954,309.415009 
		   C567.572083,311.132690 568.966919,312.833618 569.947510,314.735474 
		   C570.884033,316.552002 569.055786,315.766235 568.017456,315.944641 
	   z"/>
	   <path fill="#20131B" opacity="1.000000" stroke="none" 
		   d="
	   M313.184998,316.042969 
		   C310.181580,315.943756 310.998657,314.003052 310.987671,312.705780 
		   C310.924194,305.209686 311.076355,297.709869 310.893250,290.217712 
		   C310.827301,287.520569 311.735443,286.763977 314.284332,286.908142 
		   C317.605804,287.096100 320.953186,286.820709 324.275482,287.000946 
		   C332.755219,287.460938 338.458557,293.251251 338.544556,301.307709 
		   C338.633087,309.600342 332.857300,315.573883 324.161163,316.006042 
		   C320.671173,316.179474 317.165741,316.042725 313.184998,316.042969 
	   z"/>
	   <path fill="#1E1B1F" opacity="1.000000" stroke="none" 
		   d="
	   M521.134033,289.688232 
		   C527.667847,295.542084 529.087585,302.718109 525.223389,309.027863 
		   C521.502319,315.103912 513.592224,317.643799 506.368805,315.081970 
		   C499.450867,312.628479 495.787018,306.400482 496.875275,298.944275 
		   C498.377960,288.648621 510.057800,284.029877 521.134033,289.688232 
	   z"/>
	   <path fill="#1E1B1F" opacity="1.000000" stroke="none" 
		   d="
	   M261.029602,296.342041 
		   C264.339386,289.323883 269.818054,286.489929 276.948151,287.035980 
		   C283.044525,287.502808 287.642975,290.545746 289.918518,296.413727 
		   C292.173828,302.229492 290.327515,308.813019 285.574371,312.633789 
		   C280.401886,316.791626 272.595459,317.230164 266.871033,313.684479 
		   C261.157074,310.145233 259.093353,304.265472 261.029602,296.342041 
	   z"/>
	   <path fill="#161D25" opacity="1.000000" stroke="none" 
		   d="
	   M369.949890,313.271484 
		   C372.756958,313.273224 375.085999,313.310455 377.413269,313.262543 
		   C378.681061,313.236481 379.289520,313.820709 379.213379,315.021545 
		   C379.136475,316.233948 378.111938,316.036560 377.342468,316.039612 
		   C371.854370,316.061432 366.365326,315.997009 360.878448,316.082123 
		   C359.032349,316.110748 358.691223,315.238953 358.699097,313.664978 
		   C358.739899,305.516083 358.748688,297.366638 358.693726,289.217896 
		   C358.682281,287.516754 359.258209,286.888489 360.995697,286.917358 
		   C366.149811,287.002991 371.306519,286.925751 376.461670,286.970917 
		   C377.344513,286.978699 378.669861,286.589264 378.799896,288.034882 
		   C378.954193,289.750366 377.573517,289.708954 376.407654,289.715515 
		   C372.582672,289.737000 368.754059,289.831787 364.933289,289.704926 
		   C359.944061,289.539337 362.255219,293.260742 362.035400,295.342407 
		   C361.833466,297.255157 360.645660,300.316071 364.866028,299.993408 
		   C368.007446,299.753235 371.183685,299.892120 374.341064,299.981018 
		   C375.324310,300.008728 376.977142,299.418762 376.811920,301.399780 
		   C376.701935,302.718140 375.520935,302.706512 374.528168,302.713928 
		   C371.534790,302.736237 368.529572,302.890594 365.550995,302.681000 
		   C362.802277,302.487579 361.843140,303.300385 361.848450,306.219452 
		   C361.861206,313.270325 361.695343,313.270630 369.949890,313.271484 
	   z"/>
	   <path fill="#162229" opacity="1.000000" stroke="none" 
		   d="
	   M702.042786,299.940918 
		   C704.854187,299.942139 707.184570,299.908539 709.513000,299.961975 
		   C710.421631,299.982819 711.689636,299.715088 711.721069,301.192688 
		   C711.749634,302.536621 710.666565,302.713440 709.626404,302.720642 
		   C706.298523,302.743713 702.965942,302.841644 699.643982,302.702026 
		   C697.495300,302.611725 696.873413,303.340332 696.754700,305.515259 
		   C696.331421,313.267303 696.228943,313.261627 704.165771,313.261932 
		   C706.661804,313.262024 709.157837,313.262909 711.653870,313.263123 
		   C712.833679,313.263214 714.161621,313.156555 714.100891,314.887238 
		   C714.046814,316.425934 712.747192,316.033508 711.859558,316.039551 
		   C706.534912,316.075958 701.209534,316.019287 695.885315,316.080566 
		   C694.243713,316.099426 693.459045,315.603668 693.469299,313.835175 
		   C693.516479,305.681763 693.508240,297.527802 693.471924,289.374268 
		   C693.464905,287.797394 693.851562,286.898102 695.675903,286.921326 
		   C700.999939,286.989197 706.325439,286.928345 711.650085,286.961853 
		   C712.575623,286.967651 713.849854,286.811127 713.726562,288.324524 
		   C713.620911,289.621429 712.514954,289.720886 711.489075,289.725525 
		   C708.327515,289.739777 705.115601,290.091797 702.015991,289.654785 
		   C697.339233,288.995514 696.632385,291.006195 696.666199,295.149963 
		   C696.697571,298.983337 697.613342,300.685822 702.042786,299.940918 
	   z"/>
	   <path fill="#231B1D" opacity="1.000000" stroke="none" 
		   d="
	   M604.589478,299.944214 
		   C606.376587,300.455963 608.986145,298.701935 608.977234,301.292847 
		   C608.968750,303.778137 606.396729,302.507965 604.952759,302.685791 
		   C603.314087,302.887573 601.593994,302.958649 599.975037,302.689941 
		   C595.124207,301.884827 593.735535,303.780914 594.005249,308.591949 
		   C594.203247,312.124512 594.732483,313.726685 598.646118,313.343719 
		   C602.270752,312.989044 605.958069,313.264282 609.617615,313.284149 
		   C610.665955,313.289825 611.739197,313.489594 611.696533,314.826965 
		   C611.649536,316.299011 610.375854,316.029114 609.471680,316.035156 
		   C604.148743,316.070709 598.822754,315.953064 593.503540,316.098511 
		   C591.058838,316.165405 590.904785,314.916260 590.920227,313.026367 
		   C590.982666,305.374847 591.021423,297.721313 590.900146,290.071198 
		   C590.863708,287.775604 591.405334,286.802612 593.906189,286.893646 
		   C598.723877,287.069031 603.553223,286.901703 608.376038,286.980469 
		   C609.351196,286.996368 611.028564,286.258453 611.064148,288.143890 
		   C611.103821,290.244141 609.319519,289.696198 608.106750,289.713593 
		   C604.447815,289.766174 600.787659,289.737030 597.127991,289.737244 
		   C591.827637,289.737610 594.755737,293.753632 594.260315,295.948090 
		   C593.812378,297.932159 593.576050,300.387970 597.165100,299.990784 
		   C599.465759,299.736206 601.817566,299.943817 604.589478,299.944214 
	   z"/>
	   <path fill="#271F17" opacity="1.000000" stroke="none" 
		   d="
	   M79.290848,305.931030 
		   C79.291931,313.264557 79.291931,313.263885 86.102493,313.265930 
		   C88.927795,313.266754 91.753181,313.259552 94.578354,313.280273 
		   C95.585953,313.287659 96.702255,313.337494 96.826668,314.652130 
		   C96.971703,316.184631 95.700630,316.029205 94.778748,316.034973 
		   C89.294533,316.069427 83.808960,315.989471 78.326073,316.081421 
		   C76.085716,316.118988 76.044685,314.833649 76.052246,313.192749 
		   C76.088264,305.381714 76.136024,297.569489 76.024940,289.759888 
		   C75.993820,287.572052 76.718742,286.856750 78.872871,286.906982 
		   C83.856010,287.023193 88.843979,286.917908 93.829330,286.967773 
		   C94.694107,286.976379 96.014442,286.457855 96.189293,287.963196 
		   C96.381668,289.619293 95.218979,289.756348 93.925644,289.744659 
		   C90.103485,289.710083 86.277771,289.831757 82.459030,289.713013 
		   C77.162964,289.548340 79.760239,293.508942 79.371048,295.722076 
		   C78.985802,297.912781 78.665237,300.487610 82.554794,300.004669 
		   C85.173538,299.679535 87.879570,299.781586 90.518181,300.014313 
		   C91.751419,300.123108 94.081650,298.786133 94.115295,301.151367 
		   C94.153343,303.825714 91.636345,302.578705 90.235733,302.679688 
		   C87.590271,302.870361 84.919746,302.795410 82.262878,302.718719 
		   C80.327667,302.662872 78.951103,303.041840 79.290848,305.931030 
	   z"/>
	   <path fill="#151021" opacity="1.000000" stroke="none" 
		   d="
	   M798.541992,299.528198 
		   C798.915833,295.870819 798.963013,292.541565 798.964661,289.212341 
		   C798.965271,287.932556 799.092773,286.860901 800.790222,286.998169 
		   C802.236572,287.115112 802.139221,288.182098 802.140320,289.158173 
		   C802.149475,297.483734 802.142090,305.809326 802.147095,314.134888 
		   C802.147766,315.261688 801.880981,316.080139 800.497620,316.023102 
		   C799.113159,315.966034 798.971130,315.061554 798.972900,313.993713 
		   C798.977600,311.163025 798.853271,308.325928 799.006653,305.503693 
		   C799.127136,303.287476 798.249390,302.615631 796.129395,302.675659 
		   C791.969971,302.793427 787.800964,302.816681 783.643494,302.668549 
		   C781.376770,302.587769 780.771301,303.494080 780.874573,305.593536 
		   C781.013428,308.417297 780.895325,311.253204 780.907349,314.083832 
		   C780.912109,315.198029 780.662598,315.998077 779.300903,316.021973 
		   C777.876648,316.046967 777.733765,315.175507 777.734375,314.089233 
		   C777.739197,305.763672 777.730530,297.438110 777.737000,289.112549 
		   C777.737732,288.135529 777.637573,287.087006 779.097900,286.982147 
		   C780.817444,286.858673 780.847595,287.952545 780.925537,289.212555 
		   C781.138489,292.654633 779.338684,297.436035 781.596863,299.218140 
		   C784.458435,301.476501 789.252380,299.756439 793.207336,299.939758 
		   C794.865784,300.016632 796.533630,299.890289 798.541992,299.528198 
	   z"/>
	   <path fill="#1E1B1F" opacity="1.000000" stroke="none" 
		   d="
	   M169.774109,312.126434 
		   C173.028259,307.823456 172.559830,305.673950 168.166748,304.066681 
		   C165.220703,302.988800 162.120560,302.339355 159.142151,301.340698 
		   C156.017960,300.293243 154.000381,298.159241 154.130569,294.707397 
		   C154.255157,291.404297 156.094788,289.147125 159.176483,287.957123 
		   C163.614822,286.243225 167.970398,286.694244 172.234955,288.583496 
		   C173.094559,288.964294 174.118149,289.263916 173.477158,290.705994 
		   C172.815994,292.193451 171.959518,291.552795 171.102463,291.117126 
		   C167.987778,289.533844 164.698532,289.424500 161.379913,290.093018 
		   C159.050797,290.562164 157.452072,292.084686 157.252487,294.487366 
		   C157.061111,296.791412 158.621872,298.204773 160.630478,298.885834 
		   C163.762802,299.947906 166.993317,300.718719 170.133240,301.760590 
		   C173.248138,302.794189 175.261719,304.828217 175.145981,308.351715 
		   C175.034393,311.748962 173.140350,313.886169 170.071014,315.032959 
		   C164.909698,316.961304 159.953339,316.224243 155.210556,313.651550 
		   C154.396103,313.209778 153.307404,312.624420 154.003387,311.360931 
		   C154.737503,310.028168 155.641449,310.862091 156.477417,311.311554 
		   C160.641312,313.550262 164.948868,313.969788 169.774109,312.126434 
	   z"/>
	   <path fill="#1E1B1F" opacity="1.000000" stroke="none" 
		   d="
	   M122.139679,298.954407 
		   C125.536186,299.964142 128.558426,300.821747 131.542313,301.796783 
		   C134.718170,302.834503 136.622986,304.984283 136.459595,308.439972 
		   C136.302017,311.772461 134.437088,313.932983 131.310272,315.072815 
		   C126.492088,316.829285 121.837685,316.277008 117.341354,314.054108 
		   C116.292191,313.535431 114.392159,313.119629 115.378723,311.329712 
		   C116.242020,309.763519 117.300438,311.122009 118.264328,311.620117 
		   C121.646156,313.367828 125.254730,313.597870 128.929642,312.980896 
		   C131.249008,312.591492 132.998947,311.335022 133.296844,308.859131 
		   C133.607208,306.279633 131.982025,304.847473 129.758453,304.127625 
		   C126.768456,303.159698 123.694084,302.450165 120.711777,301.461304 
		   C117.634758,300.441040 115.493080,298.463776 115.526474,294.962250 
		   C115.560410,291.403076 117.419884,289.112396 120.750275,287.876343 
		   C125.052406,286.279633 129.233932,286.769379 133.345764,288.464996 
		   C134.144455,288.794373 135.385513,289.004883 134.908203,290.494751 
		   C134.312836,292.353088 133.229309,291.557251 132.219849,291.036072 
		   C129.597519,289.682190 126.808517,289.573425 123.962837,289.880890 
		   C121.481705,290.149017 119.431290,291.061829 118.791290,293.753937 
		   C118.174652,296.347778 119.673843,297.784363 122.139679,298.954407 
	   z"/>
	   <path fill="#231B1D" opacity="1.000000" stroke="none" 
		   d="
	   M739.273682,313.954407 
		   C731.772400,308.160828 730.027405,300.458710 734.363098,293.663330 
		   C738.324097,287.455231 747.401611,285.033264 754.307434,288.465179 
		   C755.656311,289.135529 758.192078,289.810059 757.391968,291.612061 
		   C756.232117,294.224213 754.672302,291.639954 753.433105,291.035919 
		   C748.258118,288.513367 741.404236,289.726776 737.900696,293.912445 
		   C734.439148,298.047729 734.311340,304.472229 737.605591,308.742828 
		   C741.029846,313.181976 748.048828,314.571411 753.478210,311.966187 
		   C754.660156,311.399078 756.104858,309.222626 757.206177,311.225647 
		   C758.382141,313.364563 755.780701,313.811859 754.477234,314.433655 
		   C749.512573,316.801910 744.519836,316.672821 739.273682,313.954407 
	   z"/>
	   <path fill="#231B1D" opacity="1.000000" stroke="none" 
		   d="
	   M223.560501,313.663361 
		   C216.371765,307.577057 214.933609,299.689270 219.549362,293.159821 
		   C223.838028,287.093048 233.003128,285.058990 239.678131,288.753204 
		   C240.876434,289.416412 243.025101,290.032684 242.196228,291.727753 
		   C241.107162,293.954987 239.791092,291.850250 238.618622,291.229797 
		   C233.320114,288.426056 226.199554,289.656158 222.664383,293.975647 
		   C219.254898,298.141541 219.187134,304.588593 222.508240,308.826874 
		   C225.951035,313.220459 232.997314,314.565521 238.404938,311.925598 
		   C239.572754,311.355469 241.027924,309.174866 242.071167,311.299713 
		   C243.107376,313.410278 240.510666,313.859772 239.194931,314.487244 
		   C234.025146,316.952789 228.883362,316.515472 223.560501,313.663361 
	   z"/>
	   <path fill="#303434" opacity="1.000000" stroke="none" 
		   d="
	   M41.924522,311.862701 
		   C46.072033,314.163452 50.394646,312.724304 54.584541,313.213287 
		   C55.892014,313.365814 58.021095,312.430420 57.986229,314.827637 
		   C57.955204,316.960724 55.969738,316.041748 54.876713,316.046234 
		   C49.578487,316.068024 42.631126,317.918549 39.434814,315.282013 
		   C36.098938,312.530365 38.647293,305.313568 38.413204,300.055817 
		   C38.265751,296.743958 38.343269,293.419403 38.407482,290.102203 
		   C38.433739,288.745667 37.839214,286.812805 40.315224,286.955719 
		   C42.406155,287.076447 41.838181,288.774414 41.846012,289.970703 
		   C41.892715,297.105011 41.875683,304.239716 41.924522,311.862701 
	   z"/>
	   <path fill="#20131B" opacity="1.000000" stroke="none" 
		   d="
	   M665.040039,307.932068 
		   C665.040039,309.252014 665.232239,310.141418 665.000793,310.901855 
		   C664.486389,312.591980 666.471985,315.686188 663.609924,315.819550 
		   C660.292725,315.974091 662.143860,312.721741 662.066040,311.152679 
		   C661.786499,305.516510 661.676453,299.839294 662.052734,294.214447 
		   C662.313171,290.321960 660.961121,289.106903 657.339905,289.698944 
		   C656.530701,289.831299 655.677368,289.769318 654.851318,289.705933 
		   C653.644470,289.613373 651.792786,290.269470 651.828979,288.223480 
		   C651.867920,286.023254 653.833191,287.020264 654.911987,287.001709 
		   C660.892639,286.898621 666.876038,286.932129 672.858154,286.975220 
		   C673.723877,286.981445 675.042236,286.480042 675.186523,288.001587 
		   C675.346680,289.691376 674.115112,289.697815 672.869568,289.734222 
		   C670.411682,289.806030 667.024048,289.042511 665.722961,290.336273 
		   C663.848389,292.200287 665.190430,295.684967 665.069336,298.470703 
		   C664.939575,301.456238 665.040039,304.451813 665.040039,307.932068 
	   z"/>
	   <path fill="#162229" opacity="1.000000" stroke="none" 
		   d="
	   M401.491455,313.486389 
		   C401.011963,316.201935 400.407013,318.578125 399.713409,320.928223 
		   C399.443329,321.843353 398.577972,322.272552 397.759979,321.961823 
		   C396.377960,321.436798 397.814667,320.691986 397.767334,320.038116 
		   C397.653137,318.461700 398.149292,316.988495 397.755829,315.273376 
		   C397.022980,312.078949 398.329529,310.839325 401.491455,313.486389 
	   z"/>
	   <path fill="#FDFDFD" opacity="1.000000" stroke="none" 
		   d="
	   M19.692810,215.984344 
		   C19.692812,150.997528 19.739962,86.507225 19.585186,22.017401 
		   C19.575027,17.785427 20.678188,16.932003 24.762339,16.933653 
		   C288.555542,17.040211 552.348816,17.042423 816.141968,16.919725 
		   C820.470764,16.917713 821.169678,18.155899 821.161804,22.145092 
		   C821.030884,88.801369 821.020691,155.458084 821.174194,222.114273 
		   C821.184631,226.635956 820.103882,227.808853 815.513184,227.806732 
		   C552.719849,227.685883 289.926453,227.699051 27.133076,227.699036 
		   C19.692966,227.699036 19.692963,227.698975 19.692822,220.480225 
		   C19.692795,219.147141 19.692816,217.814056 19.692810,215.984344 
	   z"/>
	   <path fill="#FBFCFB" opacity="1.000000" stroke="none" 
		   d="
	   M567.035645,298.584412 
		   C564.614624,303.051910 555.582581,305.937317 551.692017,303.902496 
		   C550.755249,303.412567 550.811646,302.621643 550.808960,301.801788 
		   C550.804504,300.472076 550.641357,299.117889 550.836487,297.817749 
		   C551.235596,295.158905 549.311279,290.939026 551.902466,290.136200 
		   C555.628906,288.981598 560.147217,288.901978 564.052307,290.912750 
		   C567.022949,292.442383 567.445068,295.186188 567.035645,298.584412 
	   z"/>
	   <path fill="#F8F9F8" opacity="1.000000" stroke="none" 
		   d="
	   M330.807098,291.975800 
		   C335.737244,296.004883 336.532227,300.939728 334.582672,306.179047 
		   C332.681824,311.287354 328.371399,313.159973 323.090454,313.316010 
		   C314.137238,313.580566 314.138947,313.641418 314.139130,304.580261 
		   C314.139191,300.586060 314.136932,296.591888 314.142090,292.597687 
		   C314.143799,291.276733 313.941925,289.682465 315.930084,289.755096 
		   C320.839966,289.934509 325.964203,288.672638 330.807098,291.975800 
	   z"/>
	   <path fill="#FBFCFB" opacity="1.000000" stroke="none" 
		   d="
	   M518.381958,311.757446 
		   C509.208923,315.234863 501.313324,311.699768 499.998779,303.869354 
		   C498.968719,297.733490 502.098633,292.097992 507.550781,290.271729 
		   C513.271729,288.355499 519.635254,290.478546 522.506836,295.261566 
		   C525.718384,300.610809 524.275879,306.850342 518.381958,311.757446 
	   z"/>
	   <path fill="#F8F9F8" opacity="1.000000" stroke="none" 
		   d="
	   M278.433563,289.979431 
		   C285.686462,292.811249 288.712799,297.648651 287.461487,303.793610 
		   C286.279419,309.598480 281.794067,313.224030 275.723145,313.281769 
		   C269.331390,313.342590 264.624939,309.742157 263.402283,303.823883 
		   C261.974854,296.914215 267.233215,288.114929 278.433563,289.979431 
	   z"/>
	   <path fill="#010101" opacity="1.000000" stroke="none" 
		   d="
	   M420.204346,32.168972 
		   C420.288391,91.472603 420.249359,150.293457 420.401367,209.113815 
		   C420.411560,213.060455 419.167603,213.666016 415.617340,213.663513 
		   C290.144165,213.574860 164.670944,213.569595 39.197815,213.682571 
		   C35.338352,213.686050 34.594433,212.578568 34.601780,208.944550 
		   C34.718727,151.123795 34.712463,93.302673 34.611183,35.481861 
		   C34.605331,32.138844 35.234871,30.997528 38.878155,31.000484 
		   C164.684555,31.102610 290.491058,31.084145 416.297546,31.105637 
		   C417.579926,31.105856 418.980438,30.654709 420.204346,32.168972 
	   z"/>
	   <path fill="#0F0F0F" opacity="1.000000" stroke="none" 
		   d="
	   M550.160095,106.245087 
		   C549.965820,101.133362 553.498230,103.363663 555.471008,103.039146 
		   C558.160400,102.596764 557.691101,104.772797 557.693237,106.351707 
		   C557.708984,117.983505 557.772522,129.616241 557.624023,141.246170 
		   C557.602356,142.939392 559.277161,145.814697 555.376831,146.071503 
		   C552.269409,146.276123 549.788574,146.065598 550.342896,140.856323 
		   C546.600159,146.748917 541.856689,147.366409 537.057617,145.677628 
		   C531.885986,143.857727 530.211731,139.277817 530.164001,134.068420 
		   C530.141113,131.576080 530.196106,129.082748 530.152222,126.590988 
		   C530.061157,121.425140 531.368042,116.775749 536.456787,114.609482 
		   C541.121948,112.623566 545.798828,113.078812 550.159729,117.778069 
		   C550.159729,113.496811 550.159729,110.104424 550.160095,106.245087 
	   z"/>
	   <path fill="#0F0F0F" opacity="1.000000" stroke="none" 
		   d="
	   M487.074768,115.074486 
		   C483.492249,116.351990 480.585876,116.621529 478.637573,112.330536 
		   C477.326782,109.443657 473.819855,109.575439 471.018890,110.263641 
		   C468.117493,110.976517 466.700745,113.183540 466.705719,116.228035 
		   C466.715240,122.053818 466.727112,127.879707 466.699982,133.705383 
		   C466.685852,136.735092 467.981171,139.025665 470.912964,139.718872 
		   C474.094177,140.471085 477.310822,140.280792 479.204651,136.920120 
		   C479.988129,135.529846 480.192322,134.064178 482.511597,134.000641 
		   C487.343597,133.868271 488.151794,134.818542 486.113464,139.267731 
		   C483.571960,144.815216 477.777771,147.270813 469.945007,146.120087 
		   C464.057831,145.255188 459.772339,141.169479 459.454895,135.180099 
		   C459.094330,128.377045 459.051636,121.519409 459.475647,114.723236 
		   C459.890808,108.069031 464.907898,104.005394 472.031158,103.685745 
		   C480.836090,103.290627 485.490906,106.666138 487.074768,115.074486 
	   z"/>
	   <path fill="#0A0A0A" opacity="1.000000" stroke="none" 
		   d="
	   M574.670776,132.056000 
		   C572.242126,134.537827 573.261536,136.814133 575.175354,138.418167 
		   C577.983154,140.771469 581.433838,140.674896 584.531433,139.055420 
		   C586.489624,138.031677 588.277771,137.314026 590.540405,137.278946 
		   C594.042297,137.224640 593.639099,138.609543 592.255127,140.776688 
		   C589.301819,145.401520 581.883667,147.640076 575.156799,145.889511 
		   C569.450684,144.404572 566.177429,140.070496 566.050842,133.783829 
		   C566.010681,131.790268 566.147705,129.788803 566.024292,127.802094 
		   C565.687927,122.387489 567.131592,117.664627 572.291504,115.297043 
		   C578.009766,112.673218 583.953064,112.688072 589.375305,116.353508 
		   C593.241821,118.967209 595.499084,126.818748 593.921753,130.830231 
		   C593.203796,132.656281 591.723511,131.960434 590.560608,131.979965 
		   C585.409912,132.066544 580.257019,132.020081 574.670776,132.056000 
	   z"/>
	   <path fill="#0A0A0A" opacity="1.000000" stroke="none" 
		   d="
	   M494.738220,128.124863 
		   C494.916534,118.076996 499.433868,113.634071 508.934204,113.695389 
		   C517.969055,113.753708 522.704956,118.496124 522.821045,127.614426 
		   C522.842285,129.280563 522.809509,130.947357 522.826355,132.613586 
		   C522.885620,138.462357 520.823120,143.018784 515.077026,145.312958 
		   C509.293945,147.621918 501.732300,146.227646 497.812836,142.284470 
		   C493.887604,138.335556 494.869354,133.354828 494.738220,128.124863 
	   z"/>
	   <path fill="#0F0F0F" opacity="1.000000" stroke="none" 
		   d="
	   M714.335815,147.530548 
		   C712.734619,153.002991 708.850220,152.292160 704.485229,151.708649 
		   C706.413757,148.001175 708.218628,144.491119 710.059265,140.999939 
		   C716.964966,127.901619 724.043091,114.890411 730.703369,101.668625 
		   C732.873474,97.360626 735.226440,94.781502 740.947937,97.052055 
		   C732.212708,113.622688 723.364197,130.408279 714.335815,147.530548 
	   z"/>
	   <path fill="#0F0F0F" opacity="1.000000" stroke="none" 
		   d="
	   M771.625671,127.447174 
		   C771.321899,129.189865 770.931702,130.334991 769.459656,130.954117 
		   C760.809265,134.592407 752.187317,138.298447 743.431763,142.034592 
		   C742.762390,136.961761 744.672424,134.338150 749.215210,132.875916 
		   C754.567566,131.153076 759.696594,128.736420 765.635193,126.332024 
		   C760.140747,123.712112 755.227783,121.093216 750.093140,119.024269 
		   C746.994507,117.775742 746.780945,116.028206 747.431335,113.239548 
		   C747.929504,111.103531 748.644714,111.029137 750.405334,111.929802 
		   C756.910461,115.257469 763.403564,118.629257 770.061707,121.627998 
		   C773.133667,123.011559 771.745911,125.084084 771.625671,127.447174 
	   z"/>
	   <path fill="#0F0F0F" opacity="1.000000" stroke="none" 
		   d="
	   M683.657959,128.361023 
		   C688.187317,130.531250 692.318237,132.682037 696.610168,134.439606 
		   C700.324768,135.960739 698.675049,138.729355 697.970276,140.677353 
		   C697.016968,143.312393 695.279785,140.863480 694.182068,140.359665 
		   C688.309692,137.664490 682.522583,134.779114 676.755981,131.860931 
		   C675.414795,131.182190 673.207520,130.944382 673.819641,128.568649 
		   C674.401123,126.311150 673.344666,123.387665 676.427368,122.084831 
		   C685.059265,118.436745 693.673279,114.746223 702.403198,111.026024 
		   C703.161804,116.435326 700.906311,118.925285 696.187805,120.354073 
		   C690.825500,121.977806 685.711426,124.421394 680.386841,126.549637 
		   C680.781250,127.823250 682.290039,127.634209 683.657959,128.361023 
	   z"/>
	   <path fill="#0A0A0A" opacity="1.000000" stroke="none" 
		   d="
	   M621.062134,138.516296 
		   C621.647705,141.722626 621.212891,144.356033 618.516663,145.743225 
		   C616.598450,146.730194 614.317078,146.751480 612.383484,145.423645 
		   C610.230347,143.944992 609.755676,141.700668 610.144348,139.290436 
		   C610.510071,137.023026 611.651428,135.260635 614.120850,134.847549 
		   C617.140442,134.342392 619.728638,134.854111 621.062134,138.516296 
	   z"/>
	   <path fill="#F6F6F6" opacity="1.000000" stroke="none" 
		   d="
	   M118.201721,87.995071 
		   C119.703995,96.210732 115.734123,101.604683 108.019722,101.949036 
		   C102.376678,102.200920 96.712524,101.941071 91.060463,102.049583 
		   C88.962700,102.089867 88.146271,101.484840 88.167336,99.249947 
		   C88.266090,88.774200 88.261719,78.296570 88.169380,67.820702 
		   C88.150391,65.665359 88.802780,64.896126 90.989990,64.947029 
		   C96.474892,65.074684 101.981491,64.735191 107.448097,65.079620 
		   C116.431305,65.645615 120.612740,73.832024 115.474037,81.012779 
		   C112.504990,85.161690 118.558189,84.929184 118.201721,87.995071 
	   z"/>
	   <path fill="#F6F6F6" opacity="1.000000" stroke="none" 
		   d="
	   M106.560745,137.993393 
		   C117.301567,139.750076 120.473694,145.978668 115.114616,154.420837 
		   C114.012100,156.157654 114.737434,156.522324 115.734734,157.469879 
		   C118.972511,160.546127 119.797379,164.287445 118.096245,168.385590 
		   C116.320808,172.662735 112.692604,174.700195 108.304771,174.916061 
		   C102.502602,175.201523 96.674385,174.912598 90.862099,175.058807 
		   C88.502975,175.118164 88.165413,174.046692 88.178795,172.055191 
		   C88.248016,161.753265 88.310562,151.449020 88.145737,141.149277 
		   C88.100510,138.322968 89.243462,137.871124 91.655579,137.942719 
		   C96.470215,138.085602 101.292046,137.985672 106.560745,137.993393 
	   z"/>
	   <path fill="#E5E5E5" opacity="1.000000" stroke="none" 
		   d="
	   M268.414795,160.621887 
		   C265.412872,156.439514 262.624451,152.545364 259.836060,148.651199 
		   C259.446838,148.700409 259.057587,148.749603 258.668365,148.798813 
		   C258.668365,156.312866 258.713928,163.827454 258.624695,171.340454 
		   C258.609375,172.631561 259.556488,174.671967 257.236115,174.974380 
		   C255.360107,175.218872 253.227936,175.709808 253.277313,172.327026 
		   C253.430603,161.830627 253.320908,151.330551 253.350647,140.831985 
		   C253.353668,139.763016 252.889389,138.216049 254.570862,138.026062 
		   C256.506165,137.807388 258.346008,137.670761 259.803101,139.806625 
		   C264.401031,146.546417 269.243317,153.119827 274.010162,159.743835 
		   C275.126648,161.295258 276.318451,162.792435 278.524139,164.047806 
		   C278.524139,156.830963 278.453857,149.612961 278.573639,142.398102 
		   C278.603485,140.597885 277.258148,137.803848 281.182251,137.903107 
		   C285.133362,138.003052 283.575836,140.861160 283.601471,142.592697 
		   C283.742035,152.089386 283.706268,161.589569 283.625122,171.087646 
		   C283.613800,172.412323 284.554840,174.426971 282.495239,174.925232 
		   C280.589539,175.386261 278.709717,175.277283 277.310730,173.121231 
		   C274.594666,168.935303 271.541687,164.967972 268.414795,160.621887 
	   z"/>
	   <path fill="#F0F0F0" opacity="1.000000" stroke="none" 
		   d="
	   M203.604935,148.799713 
		   C208.519012,138.994263 217.443176,134.888733 227.322495,137.598648 
		   C236.829132,140.206329 242.163147,148.141647 241.283981,158.368835 
		   C240.278885,170.061081 231.487396,177.053360 219.154327,175.969528 
		   C208.809418,175.060410 201.371292,165.862457 202.313965,155.019257 
		   C202.485397,153.047531 203.064240,151.111237 203.604935,148.799713 
	   z"/>
	   <path fill="#EEEEEE" opacity="1.000000" stroke="none" 
		   d="
	   M327.831970,166.700989 
		   C323.181702,173.394028 316.812897,175.197342 309.382812,175.081650 
		   C298.091064,174.905838 298.088776,175.048264 298.088806,163.764130 
		   C298.088806,156.276443 298.196289,148.786362 298.030518,141.302353 
		   C297.973053,138.707489 298.665955,137.722916 301.348328,137.919220 
		   C304.327454,138.137238 307.334869,137.956863 310.329895,137.970901 
		   C326.929504,138.048645 335.151428,151.256332 327.831970,166.700989 
	   z"/>
	   <path fill="#EFEFEF" opacity="1.000000" stroke="none" 
		   d="
	   M130.092590,82.001480 
		   C130.092728,77.007561 130.217834,72.508255 130.042816,68.020668 
		   C129.948593,65.604889 130.749344,64.861893 133.137222,64.924545 
		   C138.792984,65.072945 144.455627,64.937675 150.114639,64.997757 
		   C151.427231,65.011696 153.216721,64.306679 153.260330,66.887459 
		   C153.298599,69.151955 152.309296,69.743332 150.265060,69.695427 
		   C146.438599,69.605759 142.598434,69.841446 138.783203,69.616196 
		   C135.883804,69.445015 134.833969,70.509583 135.201508,73.307121 
		   C135.330490,74.288925 135.374695,75.330322 135.195328,76.295784 
		   C134.415131,80.495140 136.499161,81.356239 140.165771,81.026131 
		   C143.137939,80.758553 146.154007,81.007027 149.149490,80.958664 
		   C150.798691,80.932037 152.053436,81.020248 151.949829,83.280594 
		   C151.856781,85.310280 150.608826,85.239983 149.254425,85.243477 
		   C145.758774,85.252495 142.250793,85.428825 138.771255,85.192329 
		   C135.867935,84.994987 135.172760,86.067429 135.149811,88.856049 
		   C135.080017,97.329659 134.952744,97.328522 143.428940,97.328697 
		   C145.925842,97.328751 148.423172,97.357681 150.919495,97.319992 
		   C152.577087,97.294968 153.777878,97.503494 153.858917,99.667397 
		   C153.941116,101.862083 152.807205,102.056847 151.112823,102.044586 
		   C145.120575,102.001198 139.125458,101.930580 133.136398,102.075630 
		   C130.748016,102.133476 129.970261,101.391815 130.041733,98.979042 
		   C130.204315,93.490669 130.092743,87.994164 130.092590,82.001480 
	   z"/>
	   <path fill="#EFEFEF" opacity="1.000000" stroke="none" 
		   d="
	   M130.495087,138.456024 
		   C137.316467,138.064819 143.807053,138.011475 150.297729,137.977493 
		   C151.752625,137.969864 153.282990,137.632431 153.271942,140.072449 
		   C153.260910,142.508423 151.953094,142.716766 150.080292,142.688095 
		   C146.251678,142.629471 142.415649,142.800552 138.594025,142.626953 
		   C136.019455,142.509995 134.904892,143.326965 135.189850,145.997910 
		   C135.365479,147.644196 135.365250,149.339737 135.189270,150.985916 
		   C134.919785,153.506592 136.057968,154.118576 138.357193,154.011139 
		   C141.679947,153.855881 145.018539,153.887299 148.343903,154.011810 
		   C149.748825,154.064438 151.840286,153.066971 151.938583,155.973221 
		   C152.033646,158.783432 150.107513,158.206818 148.557877,158.231430 
		   C145.228699,158.284302 141.888870,158.400681 138.571014,158.199997 
		   C135.954102,158.041718 135.210709,158.923462 135.149963,161.556412 
		   C134.947556,170.331375 134.828415,170.328629 143.633820,170.328644 
		   C145.631836,170.328659 147.635117,170.238831 149.626297,170.355499 
		   C151.402542,170.459564 153.873550,169.425186 153.838409,172.877640 
		   C153.804749,176.188232 151.389374,174.935043 149.903564,174.973785 
		   C144.579147,175.112595 139.241241,174.856964 133.923843,175.094681 
		   C130.904800,175.229645 129.942459,174.435226 130.011536,171.264557 
		   C130.247223,160.447357 130.140411,149.622696 130.495087,138.456024 
	   z"/>
	   <path fill="#EEEEEE" opacity="1.000000" stroke="none" 
		   d="
	   M166.669250,146.393692 
		   C165.000763,143.526749 163.524963,140.972504 162.042145,138.406067 
		   C166.292419,136.955826 168.462418,138.598938 170.217850,142.129868 
		   C172.496674,146.713623 175.356049,151.008743 178.321747,156.031403 
		   C181.308456,150.984436 184.208939,146.601273 186.557632,141.940094 
		   C188.245895,138.589584 190.328293,137.094833 194.483459,138.405045 
		   C191.848419,142.896622 189.469284,147.443497 186.626984,151.679581 
		   C182.543045,157.766174 179.562775,164.033981 180.787888,171.638260 
		   C181.102097,173.588593 180.924500,175.155167 178.089783,175.107834 
		   C175.355148,175.062195 175.519577,173.360382 175.817230,171.795273 
		   C177.747269,161.647675 171.288254,154.549377 166.669250,146.393692 
	   z"/>
	   <path fill="#F6F6F6" opacity="1.000000" stroke="none" 
		   d="
	   M542.316040,139.923401 
		   C537.370972,137.220764 535.495667,125.770325 538.961792,121.891556 
		   C540.865967,119.760704 543.376465,119.664536 545.849365,120.194557 
		   C548.107849,120.678612 549.827148,122.259834 549.980469,124.621696 
		   C550.215820,128.247742 550.458557,131.964981 549.917114,135.524734 
		   C549.342773,139.300568 546.244812,140.279068 542.316040,139.923401 
	   z"/>
	   <path fill="#F6F6F6" opacity="1.000000" stroke="none" 
		   d="
	   M581.840820,126.997620 
		   C579.886169,126.997612 578.377380,127.115326 576.897156,126.960541 
		   C575.701294,126.835495 573.979431,127.778084 573.414978,126.116882 
		   C572.842957,124.433258 573.640381,122.769623 574.967834,121.648979 
		   C577.499817,119.511391 580.462036,119.494026 583.408630,120.563393 
		   C585.668030,121.383339 587.099915,123.342598 586.755981,125.590195 
		   C586.355042,128.209625 583.811218,126.496185 581.840820,126.997620 
	   z"/>
	   <path fill="#F6F6F6" opacity="1.000000" stroke="none" 
		   d="
	   M504.974579,139.252197 
		   C501.843597,135.944290 500.734711,126.021797 502.827484,122.753403 
		   C504.618256,119.956764 507.427460,119.697311 510.311707,120.084518 
		   C513.025024,120.448784 514.924194,122.010658 515.274414,124.849297 
		   C515.536804,126.976944 515.578552,129.144287 515.556763,131.292313 
		   C515.477783,139.041504 513.164673,140.864487 504.974579,139.252197 
	   z"/>
	   <path fill="#0A0A0A" opacity="1.000000" stroke="none" 
		   d="
	   M104.608101,86.655029 
		   C107.941559,86.847176 110.023575,88.107910 109.725868,91.243073 
		   C109.430374,94.354980 107.063835,95.157837 104.266838,95.040390 
		   C103.435699,95.005493 102.597649,94.981575 101.769981,95.045708 
		   C98.927834,95.265953 96.803940,95.364159 96.879677,91.150154 
		   C96.948158,87.339508 97.989746,85.983673 101.668854,86.598419 
		   C102.479225,86.733833 103.330811,86.622589 104.608101,86.655029 
	   z"/>
	   <path fill="#0A0A0A" opacity="1.000000" stroke="none" 
		   d="
	   M97.095306,73.230988 
		   C99.886665,71.105965 102.912071,71.853409 105.720222,72.205284 
		   C108.499207,72.553513 109.661362,76.510300 107.687744,78.461441 
		   C104.991341,81.127144 101.387489,80.202301 98.278099,79.769096 
		   C95.924232,79.441147 97.465378,76.754013 97.067802,75.169128 
		   C96.951378,74.705002 97.054985,74.185684 97.095306,73.230988 
	   z"/>
	   <path fill="#0A0A0A" opacity="1.000000" stroke="none" 
		   d="
	   M99.170624,168.028793 
		   C95.253059,166.172913 97.152626,162.989975 97.346786,160.624649 
		   C97.498779,158.773117 100.182663,159.922318 101.716949,159.626877 
		   C102.037781,159.565109 102.381241,159.605942 102.713387,159.620071 
		   C105.852974,159.753601 109.742737,159.308899 109.680618,163.896378 
		   C109.619301,168.424561 105.823738,168.052811 102.628548,168.036560 
		   C101.630318,168.031479 100.632034,168.035049 99.170624,168.028793 
	   z"/>
	   <path fill="#0A0A0A" opacity="1.000000" stroke="none" 
		   d="
	   M99.126053,152.996002 
		   C95.228142,151.370819 96.799202,148.081207 97.348488,146.197189 
		   C98.130981,143.513245 101.316467,145.347076 103.422852,145.017761 
		   C105.458252,144.699570 107.491638,145.117889 108.253006,147.434753 
		   C109.227463,150.400009 107.925453,152.309097 104.999695,152.865768 
		   C103.246872,153.199280 101.387917,152.974976 99.126053,152.996002 
	   z"/>
	   <path fill="#040404" opacity="1.000000" stroke="none" 
		   d="
	   M213.476990,168.743668 
		   C207.778290,163.411987 206.173859,156.900681 208.697418,150.459290 
		   C210.824692,145.029388 215.356369,142.015244 221.464783,141.886124 
		   C227.543610,141.757660 232.220627,144.198502 234.664810,149.802277 
		   C237.245819,155.719696 236.745285,161.618530 232.466705,166.640808 
		   C228.476990,171.323959 223.071533,171.842010 217.406952,170.582748 
		   C216.146317,170.302505 215.000305,169.506622 213.476990,168.743668 
	   z"/>
	   <path fill="#060606" opacity="1.000000" stroke="none" 
		   d="
	   M325.170013,157.763824 
		   C323.234863,167.770844 314.110748,173.159531 304.786346,170.348373 
		   C302.877960,169.773026 303.231323,168.478256 303.226685,167.229828 
		   C303.200226,160.080811 303.296570,152.930176 303.167328,145.783401 
		   C303.124237,143.399246 303.876038,142.475830 306.285248,142.634201 
		   C309.907501,142.872330 313.600586,142.270859 317.097198,143.780685 
		   C323.069275,146.359406 325.361755,151.109070 325.170013,157.763824 
	   z"/>
	   </svg></a></h2>
		<div class="internal-links">
			<HeaderLink href="/">Home</HeaderLink>
			<HeaderLink href="/blog">Blog</HeaderLink>
			<HeaderLink href="/about">About</HeaderLink>
		</div>
		<div class="social-links">
			<a href="https://instagram.com/boatchrnthn" target="_blank">
				<span class="sr-only">Follow Astro on Mastodon</span>
				<svg viewBox="0 0 16 16" aria-hidden="true" width="32" height="32"
					><path
						fill="currentColor"
						d="M8 0C5.829 0 5.556.01 4.703.048 3.85.088 3.269.222 2.76.42a3.917 3.917 0 0 0-1.417.923A3.927 3.927 0 0 0 .42 2.76C.222 3.268.087 3.85.048 4.7.01 5.555 0 5.827 0 8.001c0 2.172.01 2.444.048 3.297.04.852.174 1.433.372 1.942.205.526.478.972.923 1.417.444.445.89.719 1.416.923.51.198 1.09.333 1.942.372C5.555 15.99 5.827 16 8 16s2.444-.01 3.298-.048c.851-.04 1.434-.174 1.943-.372a3.916 3.916 0 0 0 1.416-.923c.445-.445.718-.891.923-1.417.197-.509.332-1.09.372-1.942C15.99 10.445 16 10.173 16 8s-.01-2.445-.048-3.299c-.04-.851-.175-1.433-.372-1.941a3.926 3.926 0 0 0-.923-1.417A3.911 3.911 0 0 0 13.24.42c-.51-.198-1.092-.333-1.943-.372C10.443.01 10.172 0 7.998 0h.003zm-.717 1.442h.718c2.136 0 2.389.007 3.232.046.78.035 1.204.166 1.486.275.373.145.64.319.92.599.28.28.453.546.598.92.11.281.24.705.275 1.485.039.843.047 1.096.047 3.231s-.008 2.389-.047 3.232c-.035.78-.166 1.203-.275 1.485a2.47 2.47 0 0 1-.599.919c-.28.28-.546.453-.92.598-.28.11-.704.24-1.485.276-.843.038-1.096.047-3.232.047s-2.39-.009-3.233-.047c-.78-.036-1.203-.166-1.485-.276a2.478 2.478 0 0 1-.92-.598 2.48 2.48 0 0 1-.6-.92c-.109-.281-.24-.705-.275-1.485-.038-.843-.046-1.096-.046-3.233 0-2.136.008-2.388.046-3.231.036-.78.166-1.204.276-1.486.145-.373.319-.64.599-.92.28-.28.546-.453.92-.598.282-.11.705-.24 1.485-.276.738-.034 1.024-.044 2.515-.045v.002zm4.988 1.328a.96.96 0 1 0 0 1.92.96.96 0 0 0 0-1.92zm-4.27 1.122a4.109 4.109 0 1 0 0 8.217 4.109 4.109 0 0 0 0-8.217zm0 1.441a2.667 2.667 0 1 1 0 5.334 2.667 2.667 0 0 1 0-5.334"
					></path></svg
				>
			</a>
			<a href="https://twitter.com/astrodotbuild" target="_blank">
				<span class="sr-only">Follow Astro on Twitter</span>
				<svg viewBox="0 0 16 16" aria-hidden="true" width="32" height="32"
					><path
						fill="currentColor"
						d="M5.026 15c6.038 0 9.341-5.003 9.341-9.334 0-.14 0-.282-.006-.422A6.685 6.685 0 0 0 16 3.542a6.658 6.658 0 0 1-1.889.518 3.301 3.301 0 0 0 1.447-1.817 6.533 6.533 0 0 1-2.087.793A3.286 3.286 0 0 0 7.875 6.03a9.325 9.325 0 0 1-6.767-3.429 3.289 3.289 0 0 0 1.018 4.382A3.323 3.323 0 0 1 .64 6.575v.045a3.288 3.288 0 0 0 2.632 3.218 3.203 3.203 0 0 1-.865.115 3.23 3.23 0 0 1-.614-.057 3.283 3.283 0 0 0 3.067 2.277A6.588 6.588 0 0 1 .78 13.58a6.32 6.32 0 0 1-.78-.045A9.344 9.344 0 0 0 5.026 15z"
					></path></svg
				>
			</a>
			<a href="https://github.com/withastro/astro" target="_blank">
				<span class="sr-only">Go to Astro's GitHub repo</span>
				<svg viewBox="0 0 16 16" aria-hidden="true" width="32" height="32"
					><path
						fill="currentColor"
						d="M8 0C3.58 0 0 3.58 0 8c0 3.54 2.29 6.53 5.47 7.59.4.07.55-.17.55-.38 0-.19-.01-.82-.01-1.49-2.01.37-2.53-.49-2.69-.94-.09-.23-.48-.94-.82-1.13-.28-.15-.68-.52-.01-.53.63-.01 1.08.58 1.23.82.72 1.21 1.87.87 2.33.66.07-.52.28-.87.51-1.07-1.78-.2-3.64-.89-3.64-3.95 0-.87.31-1.59.82-2.15-.08-.2-.36-1.02.08-2.12 0 0 .67-.21 2.2.82.64-.18 1.32-.27 2-.27.68 0 1.36.09 2 .27 1.53-1.04 2.2-.82 2.2-.82.44 1.1.16 1.92.08 2.12.51.56.82 1.27.82 2.15 0 3.07-1.87 3.75-3.65 3.95.29.25.54.73.54 1.48 0 1.07-.01 1.93-.01 2.2 0 .21.15.46.55.38A8.012 8.012 0 0 0 16 8c0-4.42-3.58-8-8-8z"
					></path></svg>